<svg width="64" height="64" viewBox="0 0 64 64" fill="none" xmlns="http://www.w3.org/2000/svg">
<path d="M31.2 8C30.3164 8 29.6 8.71636 29.6 9.6V11.2C29.6 12.0836 30.3164 12.8 31.2 12.8H32.8C33.6836 12.8 34.4 12.0836 34.4 11.2V9.6C34.4 8.71636 33.6836 8 32.8 8H31.2ZM24.8 15.6521C24.8 14.6196 23.8346 13.856 22.8486 14.1622C14.143 16.8657 8 23.3039 8 30.8C8 39.1316 15.5833 46.1584 25.8455 48.2012C26.6206 48.3552 27.2 49.0228 27.2 49.8132V52.1372C27.2 53.5628 28.9234 54.2764 29.9314 53.2688L35.6686 47.5312C36.2935 46.9064 36.2935 45.8936 35.6686 45.2688L29.9314 39.5314C28.9234 38.5234 27.2 39.2373 27.2 40.6628V41.654C27.2 42.65 26.2973 43.4068 25.3324 43.1604C18.0261 41.2936 12.8 36.4638 12.8 30.8C12.8 25.5825 17.2311 21.0672 23.6385 18.9262C24.3194 18.6986 24.8 18.0739 24.8 17.356V15.6521ZM41.1512 14.1622C40.1652 13.856 39.2 14.6196 39.2 15.6521V17.356C39.2 18.0739 39.6806 18.6986 40.3616 18.9262C46.7688 21.0672 51.2 25.5825 51.2 30.8C51.2 34.6688 48.6764 38.3486 44.3676 40.8628C43.6044 41.3084 43.2668 42.2592 43.6516 43.0548L44.3488 44.496C44.7336 45.2912 45.694 45.6288 46.4636 45.1952C52.4672 41.8132 56 36.5214 56 30.8C56 23.3039 49.8568 16.8657 41.1512 14.1622ZM31.2 17.6C30.3164 17.6 29.6 18.3164 29.6 19.2V20.8C29.6 21.6836 30.3164 22.4 31.2 22.4H32.8C33.6836 22.4 34.4 21.6836 34.4 20.8V19.2C34.4 18.3164 33.6836 17.6 32.8 17.6H31.2ZM31.2 27.2C30.3164 27.2 29.6 27.9164 29.6 28.8V30.4C29.6 31.2836 30.3164 32 31.2 32H32.8C33.6836 32 34.4 31.2836 34.4 30.4V28.8C34.4 27.9164 33.6836 27.2 32.8 27.2H31.2Z" fill="black"/>
</svg>
