<svg width="17" height="16" viewBox="0 0 17 16" fill="none" xmlns="http://www.w3.org/2000/svg">
<path fill-rule="evenodd" clip-rule="evenodd" d="M8.25 6.99383e-07C3.832 3.13149e-07 0.25 3.58133 0.249999 8C0.249999 11.3893 2.35867 14.284 5.33467 15.4493C5.26467 14.8167 5.20133 13.846 5.36267 13.1553C5.508 12.5307 6.30067 9.17867 6.30067 9.17867C6.30067 9.17867 6.06133 8.69933 6.06133 7.99067C6.06133 6.87867 6.706 6.048 7.50867 6.048C8.19067 6.048 8.52067 6.56067 8.52067 7.17467C8.52067 7.86067 8.084 8.88667 7.858 9.838C7.66933 10.634 8.25733 11.284 9.04267 11.284C10.4647 11.284 11.5573 9.78467 11.5573 7.62067C11.5573 5.70533 10.1813 4.366 8.216 4.366C5.94 4.366 4.604 6.07333 4.604 7.83733C4.604 8.52467 4.86867 9.26267 5.19933 9.66267C5.26467 9.742 5.274 9.812 5.25467 9.89267L5.03267 10.7993C4.99733 10.946 4.91667 10.9773 4.76467 10.9067C3.76533 10.4413 3.14067 8.98067 3.14067 7.80733C3.14067 5.284 4.974 2.966 8.42667 2.966C11.202 2.966 13.3587 4.944 13.3587 7.58667C13.3587 10.344 11.6207 12.5627 9.20733 12.5627C8.39667 12.5627 7.63467 12.142 7.374 11.644L6.87533 13.546C6.69467 14.2413 6.20733 15.1127 5.88067 15.6433C6.63 15.8747 7.42533 16 8.25 16C12.668 16 16.25 12.418 16.25 8C16.25 3.58134 12.668 1.08562e-06 8.25 6.99383e-07V6.99383e-07Z" fill="black"/>
</svg>
