<svg width="15" height="13" viewBox="0 0 15 13" fill="none" xmlns="http://www.w3.org/2000/svg">
<path d="M14.25 1.47325C13.7349 1.72336 13.1813 1.89181 12.6003 1.96773C13.1936 1.57916 13.6492 0.96345 13.8632 0.229698C13.3085 0.589556 12.6937 0.851154 12.0392 0.992162C11.5159 0.381552 10.7687 9.19572e-07 9.94267 8.47361e-07C8.08825 6.85243e-07 6.72558 1.89244 7.14442 3.85699C4.758 3.72619 2.64167 2.47562 1.22475 0.574879C0.47225 1.98687 0.8345 3.83402 2.11317 4.76939C1.643 4.7528 1.19967 4.61179 0.812916 4.37636C0.781416 5.83174 1.73517 7.19333 3.1165 7.4964C2.71225 7.61635 2.2695 7.64443 1.81917 7.55C2.18433 8.79801 3.24483 9.70595 4.5025 9.73147C3.295 10.767 1.77367 11.2296 0.249999 11.0331C1.52108 11.9244 3.03133 12.4444 4.653 12.4444C9.98583 12.4444 12.9987 7.51809 12.8167 3.09963C13.3779 2.65619 13.865 2.103 14.25 1.47325Z" fill="black"/>
</svg>
