<svg width="18" height="18" viewBox="0 0 18 18" fill="none" xmlns="http://www.w3.org/2000/svg">
<path d="M9.33333 1.92208C8.82292 1.07208 7.895 0.5 6.83333 0.5H1V15.0833H6.83333C7.98208 15.0833 8.91667 16.0179 8.91667 17.1667V17.5833H9.75V17.1667C9.75 16.0179 10.6846 15.0833 11.8333 15.0833H17.6667V0.5H11.8333C10.7717 0.5 9.84375 1.07208 9.33333 1.92208ZM6.83333 14.25H1.83333V1.33333H6.83333C7.98208 1.33333 8.91667 2.26792 8.91667 3.41667V15.0833V15.1296C8.38667 14.5875 7.64917 14.25 6.83333 14.25ZM16.8333 14.25H11.8333C11.0175 14.25 10.28 14.5875 9.75 15.1296V15.0833V3.41667C9.75 2.26792 10.6846 1.33333 11.8333 1.33333H16.8333V14.25Z" fill="black" stroke="black" stroke-width="0.5"/>
</svg>
