<svg width="42" height="47" viewBox="0 0 42 47" fill="none" xmlns="http://www.w3.org/2000/svg">
<g clip-path="url(#clip0_2_4)">
<path d="M40.3371 33.2571C38.5636 31.3514 35.2452 28.4846 35.2452 19.0938C35.2452 11.9611 30.2441 6.25137 23.5007 4.85055V2.9375C23.5007 1.31545 22.1861 0 20.565 0C18.9439 0 17.6293 1.31545 17.6293 2.9375V4.85055C10.8859 6.25137 5.88484 11.9611 5.88484 19.0938C5.88484 28.4846 2.56639 31.3514 0.79287 33.2571C0.242089 33.8492 -0.00209069 34.5569 0.00249915 35.25C0.0125968 36.7555 1.19402 38.1875 2.94918 38.1875H38.1808C39.936 38.1875 41.1183 36.7555 41.1275 35.25C41.1321 34.5569 40.8879 33.8483 40.3371 33.2571V33.2571ZM6.20154 33.7812C8.14947 31.2137 10.2792 26.958 10.2893 19.147C10.2893 19.1286 10.2837 19.1121 10.2837 19.0938C10.2837 13.4152 14.8864 8.8125 20.565 8.8125C26.2436 8.8125 30.8463 13.4152 30.8463 19.0938C30.8463 19.1121 30.8407 19.1286 30.8407 19.147C30.8508 26.9589 32.9805 31.2146 34.9285 33.7812H6.20154ZM20.565 47C23.8073 47 26.4372 44.37 26.4372 41.125H14.6928C14.6928 44.37 17.3227 47 20.565 47Z" fill="#333333"/>
</g>
<defs>
<clipPath id="clip0_2_4">
<rect width="41.13" height="47" fill="white"/>
</clipPath>
</defs>
</svg>
