<svg width="18" height="18" viewBox="0 0 18 18" fill="none" xmlns="http://www.w3.org/2000/svg">
<path d="M16 3.83333H12.6571C12.9208 3.48417 13.0833 3.05458 13.0833 2.58333C13.0833 1.43292 12.1504 0.5 11 0.5C10.3154 0.5 9.71292 0.835 9.33333 1.34458C8.95375 0.835 8.35125 0.5 7.66667 0.5C6.51625 0.5 5.58333 1.43292 5.58333 2.58333C5.58333 3.05458 5.74583 3.48417 6.00958 3.83333H2.66667C1.75 3.83333 1 4.58333 1 5.5V15.5C1 16.4167 1.75 17.1667 2.66667 17.1667H16C16.9167 17.1667 17.6667 16.4167 17.6667 15.5V5.5C17.6667 4.58333 16.9167 3.83333 16 3.83333ZM11 1.33333C11.6892 1.33333 12.25 1.89417 12.25 2.58333C12.25 3.2725 11.6892 3.83333 11 3.83333C10.3108 3.83333 9.75 3.2725 9.75 2.58333C9.75 1.89417 10.3108 1.33333 11 1.33333ZM6.41667 2.58333C6.41667 1.89417 6.9775 1.33333 7.66667 1.33333C8.35583 1.33333 8.91667 1.89417 8.91667 2.58333C8.91667 3.2725 8.35583 3.83333 7.66667 3.83333C6.9775 3.83333 6.41667 3.2725 6.41667 2.58333ZM16.8333 15.5C16.8333 15.9596 16.4596 16.3333 16 16.3333H2.66667C2.20708 16.3333 1.83333 15.9596 1.83333 15.5V13H16.8333V15.5ZM16.8333 11.3333H1.83333V5.5C1.83333 5.04042 2.20708 4.66667 2.66667 4.66667H8.74417L5.41083 8L6 8.58917L9.33333 5.25583L12.6667 8.58917L13.2558 8L9.9225 4.66667H16C16.4596 4.66667 16.8333 5.04042 16.8333 5.5V11.3333Z" fill="black" stroke="black" stroke-width="0.5"/>
</svg>
